<svg width="24" height="24" viewBox="0 0 24 24" fill="none" xmlns="http://www.w3.org/2000/svg">
<g id="camera-1--photos-picture-camera-photography-photo-pictures">
<g id="camera-1--photos-picture-camera-photography-photo-pictures_2">
<path id="Vector" d="M23.1431 8.57157C23.1431 8.1169 22.9625 7.68088 22.641 7.35938C22.3196 7.0379 21.8835 6.85728 21.4289 6.85728H18.0003L15.4289 3.42871H8.57171L6.00028 6.85728H2.57171C2.11704 6.85728 1.68102 7.0379 1.35952 7.35938C1.03803 7.68088 0.857422 8.1169 0.857422 8.57157V18.8573C0.857422 19.3119 1.03803 19.748 1.35952 20.0695C1.68102 20.3909 2.11704 20.5716 2.57171 20.5716H21.4289C21.8835 20.5716 22.3196 20.3909 22.641 20.0695C22.9625 19.748 23.1431 19.3119 23.1431 18.8573V8.57157Z" stroke="black" stroke-linecap="round" stroke-linejoin="round"/>
<path id="Vector_2" d="M12.0007 16.7143C14.1309 16.7143 15.8578 14.9874 15.8578 12.8571C15.8578 10.7269 14.1309 9 12.0007 9C9.87046 9 8.14355 10.7269 8.14355 12.8571C8.14355 14.9874 9.87046 16.7143 12.0007 16.7143Z" stroke="black" stroke-linecap="round" stroke-linejoin="round"/>
</g>
</g>
</svg>
