<svg width="26" height="26" viewBox="0 0 26 26" fill="none" xmlns="http://www.w3.org/2000/svg">
<g id="Group 626378">
<path id="Line 1" d="M9.17471 10.4497L13.5328 13.7183C13.9513 14.0321 14.5409 13.9705 14.8854 13.5768L23.1997 4.07471" stroke="#33363F" stroke-width="2" stroke-linecap="round"/>
<path id="Ellipse 47" d="M24.4749 12.9999C24.4749 15.3975 23.7239 17.7349 22.3273 19.6838C20.9308 21.6327 18.9588 23.0952 16.6884 23.8659C14.418 24.6366 11.9633 24.6768 9.66889 23.9808C7.3745 23.2848 5.35576 21.8876 3.89617 19.9854C2.43659 18.0833 1.60949 15.7717 1.53105 13.3754C1.4526 10.979 2.12674 8.61829 3.45879 6.62473C4.79084 4.63118 6.71388 3.10495 8.95783 2.26038C11.2018 1.41582 13.6539 1.29535 15.9699 1.9159" stroke="#DFE1E7" stroke-width="2" stroke-linecap="round"/>
</g>
</svg>
