<svg width="31" height="30" viewBox="0 0 31 30" fill="none" xmlns="http://www.w3.org/2000/svg">
<g id="Date_today_duotone">
<path id="Subtract" fill-rule="evenodd" clip-rule="evenodd" d="M9.6001 5.00731C7.81241 5.03343 6.76311 5.15299 5.96455 5.70001C5.55683 5.9793 5.2044 6.33174 4.92511 6.73945C4.2251 7.76134 4.2251 9.19384 4.2251 12.0588C4.2251 12.2379 4.2251 12.3274 4.26885 12.3913C4.2863 12.4168 4.30833 12.4388 4.33381 12.4562C4.39768 12.5 4.48721 12.5 4.66627 12.5H26.2839C26.463 12.5 26.5525 12.5 26.6164 12.4562C26.6419 12.4388 26.6639 12.4168 26.6813 12.3913C26.7251 12.3274 26.7251 12.2379 26.7251 12.0588C26.7251 9.19384 26.7251 7.76134 26.0251 6.73945C25.7458 6.33174 25.3934 5.9793 24.9856 5.70001C24.1871 5.15299 23.1378 5.03344 21.3501 5.00731L21.3501 8.125C21.3501 8.95343 20.6785 9.625 19.8501 9.625C19.0217 9.625 18.3501 8.95343 18.3501 8.125L18.3501 5H12.6001L12.6001 8.125C12.6001 8.95343 11.9285 9.625 11.1001 9.625C10.2717 9.625 9.6001 8.95343 9.6001 8.125L9.6001 5.00731Z" fill="#222222"/>
<path id="Rectangle 2" d="M4.2251 14.25C4.2251 14.0143 4.2251 13.8964 4.29832 13.8232C4.37154 13.75 4.4894 13.75 4.7251 13.75H26.2251C26.4608 13.75 26.5787 13.75 26.6519 13.8232C26.7251 13.8964 26.7251 14.0143 26.7251 14.25V17C26.7251 20.7712 26.7251 22.6569 25.5535 23.8284C24.382 25 22.4963 25 18.7251 25H12.2251C8.45386 25 6.56824 25 5.39667 23.8284C4.2251 22.6569 4.2251 20.7712 4.2251 17V14.25Z" fill="#7E869E" fill-opacity="0.25"/>
<path id="Line 1" d="M11.1001 3.125L11.1001 8.125" stroke="#222222" stroke-linecap="round"/>
<path id="Line 2" d="M19.8501 3.125L19.8501 8.125" stroke="#222222" stroke-linecap="round"/>
</g>
</svg>
