<svg width="16" height="16" viewBox="0 0 16 16" fill="none" xmlns="http://www.w3.org/2000/svg">
<g id="dashboard-circle--app-application-dashboard-home-layout-circle" clip-path="url(#clip0_142_4167)">
<g id="dashboard-circle--app-application-dashboard-home-layout-circle_2">
<path id="Vector" d="M3.71415 6.857C5.44989 6.857 6.857 5.44989 6.857 3.71415C6.857 1.9784 5.44989 0.571289 3.71415 0.571289C1.9784 0.571289 0.571289 1.9784 0.571289 3.71415C0.571289 5.44989 1.9784 6.857 3.71415 6.857Z" stroke="black" stroke-linecap="round" stroke-linejoin="round"/>
<path id="Vector_2" d="M12.2854 6.857C14.0212 6.857 15.4283 5.44989 15.4283 3.71415C15.4283 1.9784 14.0212 0.571289 12.2854 0.571289C10.5497 0.571289 9.14258 1.9784 9.14258 3.71415C9.14258 5.44989 10.5497 6.857 12.2854 6.857Z" stroke="black" stroke-linecap="round" stroke-linejoin="round"/>
<path id="Vector_3" d="M3.71415 15.4283C5.44989 15.4283 6.857 14.0212 6.857 12.2854C6.857 10.5497 5.44989 9.14258 3.71415 9.14258C1.9784 9.14258 0.571289 10.5497 0.571289 12.2854C0.571289 14.0212 1.9784 15.4283 3.71415 15.4283Z" stroke="black" stroke-linecap="round" stroke-linejoin="round"/>
<path id="Vector_4" d="M12.2854 15.4283C14.0212 15.4283 15.4283 14.0212 15.4283 12.2854C15.4283 10.5497 14.0212 9.14258 12.2854 9.14258C10.5497 9.14258 9.14258 10.5497 9.14258 12.2854C9.14258 14.0212 10.5497 15.4283 12.2854 15.4283Z" stroke="black" stroke-linecap="round" stroke-linejoin="round"/>
</g>
</g>
<defs>
<clipPath id="clip0_142_4167">
<rect width="16" height="16" fill="white"/>
</clipPath>
</defs>
</svg>
