<svg width="31" height="30" viewBox="0 0 31 30" fill="none" xmlns="http://www.w3.org/2000/svg">
<g id="Home_duotone">
<path id="Rectangle 4127" d="M6.7749 17.0585C6.7749 16.0494 6.7749 15.5448 6.99657 15.1141C7.21823 14.6833 7.6288 14.3901 8.44995 13.8035L14.3624 9.58034C14.9238 9.17938 15.2044 8.9789 15.5249 8.9789C15.8454 8.9789 16.126 9.17938 16.6874 9.58034L22.5999 13.8035C23.421 14.3901 23.8316 14.6833 24.0532 15.1141C24.2749 15.5448 24.2749 16.0494 24.2749 17.0585V24.25C24.2749 25.1928 24.2749 25.6642 23.982 25.9571C23.6891 26.25 23.2177 26.25 22.2749 26.25H8.7749C7.83209 26.25 7.36069 26.25 7.0678 25.9571C6.7749 25.6642 6.7749 25.1928 6.7749 24.25V17.0585Z" fill="white"/>
<path id="Rectangle 4128" d="M4.2749 15.6366C4.2749 15.9035 4.2749 16.0369 4.359 16.0781C4.4431 16.1192 4.54843 16.0373 4.75908 15.8734L14.297 8.45502C14.8869 7.99625 15.1818 7.76686 15.5249 7.76686C15.868 7.76686 16.1629 7.99625 16.7528 8.45502L26.2907 15.8734C26.5014 16.0373 26.6067 16.1192 26.6908 16.0781C26.7749 16.0369 26.7749 15.9035 26.7749 15.6366V14.7282C26.7749 14.2478 26.7749 14.0076 26.6732 13.7997C26.5715 13.5918 26.382 13.4444 26.0028 13.1495L16.7528 5.95502C16.1629 5.49625 15.868 5.26686 15.5249 5.26686C15.1818 5.26686 14.8869 5.49625 14.297 5.95502L5.04702 13.1495C4.66785 13.4444 4.47827 13.5918 4.37659 13.7997C4.2749 14.0076 4.2749 14.2478 4.2749 14.7282V15.6366Z" fill="#E8E8E8"/>
<path id="Vector 3" d="M16.6499 18.75H14.3999C13.2953 18.75 12.3999 19.6454 12.3999 20.75V26.1C12.3999 26.1828 12.4671 26.25 12.5499 26.25H18.4999C18.5827 26.25 18.6499 26.1828 18.6499 26.1V20.75C18.6499 19.6454 17.7545 18.75 16.6499 18.75Z" fill="#E8E8E8"/>
<rect id="Rectangle 4129" x="20.5249" y="6.25" width="2.5" height="5" rx="0.5" fill="#E8E8E8"/>
</g>
</svg>
