<svg width="30" height="30" viewBox="0 0 30 30" fill="none" xmlns="http://www.w3.org/2000/svg">
<g id="Home_duotone">
<path id="Rectangle 4127" d="M6.25 17.0585C6.25 16.0494 6.25 15.5448 6.47166 15.1141C6.69333 14.6833 7.1039 14.3901 7.92505 13.8035L13.8375 9.58034C14.3989 9.17938 14.6795 8.9789 15 8.9789C15.3205 8.9789 15.6011 9.17938 16.1625 9.58034L22.075 13.8035C22.8961 14.3901 23.3067 14.6833 23.5283 15.1141C23.75 15.5448 23.75 16.0494 23.75 17.0585V24.25C23.75 25.1928 23.75 25.6642 23.4571 25.9571C23.1642 26.25 22.6928 26.25 21.75 26.25H8.25C7.30719 26.25 6.83579 26.25 6.54289 25.9571C6.25 25.6642 6.25 25.1928 6.25 24.25V17.0585Z" fill="#7E869E" fill-opacity="0.25"/>
<path id="Rectangle 4128" d="M3.75 15.6366C3.75 15.9035 3.75 16.0369 3.8341 16.0781C3.91819 16.1192 4.02352 16.0373 4.23418 15.8734L13.7721 8.45502C14.362 7.99625 14.6569 7.76686 15 7.76686C15.3431 7.76686 15.638 7.99625 16.2279 8.45502L25.7658 15.8734C25.9765 16.0373 26.0818 16.1192 26.1659 16.0781C26.25 16.0369 26.25 15.9035 26.25 15.6366V14.7282C26.25 14.2478 26.25 14.0076 26.1483 13.7997C26.0466 13.5918 25.857 13.4444 25.4779 13.1495L16.2279 5.95502C15.638 5.49625 15.3431 5.26686 15 5.26686C14.6569 5.26686 14.362 5.49625 13.7721 5.95502L4.52212 13.1495C4.14295 13.4444 3.95337 13.5918 3.85168 13.7997C3.75 14.0076 3.75 14.2478 3.75 14.7282V15.6366Z" fill="#222222"/>
<path id="Vector 3" d="M16.125 18.75H13.875C12.7704 18.75 11.875 19.6454 11.875 20.75V26.1C11.875 26.1828 11.9422 26.25 12.025 26.25H17.975C18.0578 26.25 18.125 26.1828 18.125 26.1V20.75C18.125 19.6454 17.2296 18.75 16.125 18.75Z" fill="#222222"/>
<rect id="Rectangle 4129" x="20" y="6.25" width="2.5" height="5" rx="0.5" fill="#222222"/>
</g>
</svg>
