<svg width="31" height="30" viewBox="0 0 31 30" fill="none" xmlns="http://www.w3.org/2000/svg">
<g id="Chat_alt_2_duotone_line">
<path id="Union" d="M24.6324 7.22215C25.4751 8.48327 25.4751 10.2388 25.4751 13.75C25.4751 17.2612 25.4751 19.0167 24.6324 20.2779C24.2677 20.8238 23.7989 21.2926 23.2529 21.6573C22.1513 22.3935 20.6722 22.4865 17.9751 22.4983V22.5L16.5931 25.2639C16.1325 26.1852 14.8177 26.1852 14.3571 25.2639L12.9751 22.5V22.4983C10.278 22.4865 8.79894 22.3935 7.69725 21.6573C7.1513 21.2926 6.68254 20.8238 6.31775 20.2779C5.4751 19.0167 5.4751 17.2612 5.4751 13.75C5.4751 10.2388 5.4751 8.48327 6.31775 7.22215C6.68254 6.6762 7.1513 6.20744 7.69725 5.84265C8.95836 5 10.7139 5 14.2251 5H16.7251C20.2363 5 21.9918 5 23.2529 5.84265C23.7989 6.20744 24.2677 6.6762 24.6324 7.22215Z" fill="#7E869E" fill-opacity="0.25" stroke="#222222" stroke-width="1.2" stroke-linecap="round" stroke-linejoin="round"/>
<path id="Vector 7" d="M11.7251 11.25L19.2251 11.25" stroke="#222222" stroke-width="1.2" stroke-linecap="round" stroke-linejoin="round"/>
<path id="Vector 8" d="M11.7251 16.25H15.4751" stroke="#222222" stroke-width="1.2" stroke-linecap="round" stroke-linejoin="round"/>
</g>
</svg>
