<svg width="27" height="27" viewBox="0 0 27 27" fill="none" xmlns="http://www.w3.org/2000/svg">
<g id="Group">
<path id="Vector" d="M1.5 1.5H25.5V25.5H1.5V1.5Z" stroke="#262626" stroke-width="1.5" stroke-miterlimit="10" stroke-linecap="round" stroke-linejoin="round"/>
<path id="Vector_2" d="M4.5 4.5H22.5V22.5H4.5V4.5Z" stroke="#262626" stroke-width="1.5" stroke-miterlimit="10" stroke-linecap="round" stroke-linejoin="round"/>
<path id="Vector_3" d="M8.50049 12.499C9.60506 12.499 10.5005 11.6036 10.5005 10.499C10.5005 9.39445 9.60506 8.49902 8.50049 8.49902C7.39592 8.49902 6.50049 9.39445 6.50049 10.499C6.50049 11.6036 7.39592 12.499 8.50049 12.499Z" fill="#C8C8C8"/>
<path id="Vector_4" d="M6.50049 17C6.76349 16.49 6.86449 16.0166 8.00049 15.5001C9.30549 14.9071 9.50049 14.5001 11.0005 13.5001C13.3735 11.9181 14.3965 8.98605 16.5005 9.00005C17.3605 9.00555 19.0005 12.5001 20.5005 13.0001" stroke="#262626" stroke-width="1.5" stroke-miterlimit="10" stroke-linecap="round" stroke-linejoin="round"/>
</g>
</svg>
