<svg width="20" height="18" viewBox="0 0 20 18" fill="none" xmlns="http://www.w3.org/2000/svg">
<path id="Vector 16" d="M2.45067 10.4844L9.40329 17.0156C9.64278 17.2406 9.76253 17.3531 9.90372 17.3808C9.9673 17.3933 10.0327 17.3933 10.0963 17.3808C10.2375 17.3531 10.3572 17.2406 10.5967 17.0156L17.5493 10.4844C19.5055 8.64676 19.743 5.62277 18.0978 3.50224L17.7885 3.10351C15.8203 0.566752 11.8696 0.992186 10.4867 3.88982C10.2913 4.29913 9.70868 4.29913 9.51333 3.88982C8.13037 0.992186 4.17972 0.566756 2.21154 3.10352L1.90219 3.50224C0.256947 5.62277 0.494498 8.64676 2.45067 10.4844Z" fill="white" stroke="#262626"/>
</svg>
