<svg width="16" height="16" viewBox="0 0 16 16" fill="none" xmlns="http://www.w3.org/2000/svg">
<g id="bullet-list--points-bullet-unordered-list-lists-bullets">
<g id="bullet-list--points-bullet-unordered-list-lists-bullets_2">
<path id="Vector" d="M1.14272 3.4285C1.45831 3.4285 1.71415 3.17266 1.71415 2.85707C1.71415 2.54148 1.45831 2.28564 1.14272 2.28564C0.827127 2.28564 0.571289 2.54148 0.571289 2.85707C0.571289 3.17266 0.827127 3.4285 1.14272 3.4285Z" stroke="#A1A1AA" stroke-linecap="round" stroke-linejoin="round"/>
<path id="Vector_2" d="M5.14258 2.85693H15.4283" stroke="#A1A1AA" stroke-linecap="round" stroke-linejoin="round"/>
<path id="Vector_3" d="M1.14272 8.57157C1.45831 8.57157 1.71415 8.31573 1.71415 8.00014C1.71415 7.68455 1.45831 7.42871 1.14272 7.42871C0.827127 7.42871 0.571289 7.68455 0.571289 8.00014C0.571289 8.31573 0.827127 8.57157 1.14272 8.57157Z" stroke="#A1A1AA" stroke-linecap="round" stroke-linejoin="round"/>
<path id="Vector_4" d="M5.14258 8H15.4283" stroke="#A1A1AA" stroke-linecap="round" stroke-linejoin="round"/>
<path id="Vector_5" d="M1.14272 13.7141C1.45831 13.7141 1.71415 13.4583 1.71415 13.1427C1.71415 12.8272 1.45831 12.5713 1.14272 12.5713C0.827127 12.5713 0.571289 12.8272 0.571289 13.1427C0.571289 13.4583 0.827127 13.7141 1.14272 13.7141Z" stroke="#A1A1AA" stroke-linecap="round" stroke-linejoin="round"/>
<path id="Vector_6" d="M5.14258 13.1426H15.4283" stroke="#A1A1AA" stroke-linecap="round" stroke-linejoin="round"/>
</g>
</g>
</svg>
