<svg width="13" height="14" viewBox="0 0 13 14" fill="none" xmlns="http://www.w3.org/2000/svg">
<g id="pepicons-pencil:pinpoint-circle-filled" clip-path="url(#clip0_142_4232)">
<g id="Group">
<g id="Mask group">
<mask id="mask0_142_4232" style="mask-type:luminance" maskUnits="userSpaceOnUse" x="0" y="0" width="13" height="14">
<g id="Group_2">
<path id="Vector" d="M0 0.12207H13V13.1221H0V0.12207Z" fill="white"/>
<g id="Group_3">
<path id="Vector_2" fill-rule="evenodd" clip-rule="evenodd" d="M6.5 7.12207C6.69698 7.12207 6.89204 7.08327 7.07403 7.00789C7.25601 6.93251 7.42137 6.82202 7.56066 6.68273C7.69995 6.54344 7.81044 6.37808 7.88582 6.1961C7.9612 6.01411 8 5.81905 8 5.62207C8 5.42509 7.9612 5.23003 7.88582 5.04805C7.81044 4.86606 7.69995 4.7007 7.56066 4.56141C7.42137 4.42212 7.25601 4.31163 7.07403 4.23625C6.89204 4.16087 6.69698 4.12207 6.5 4.12207C6.10218 4.12207 5.72064 4.28011 5.43934 4.56141C5.15804 4.84271 5 5.22425 5 5.62207C5 6.0199 5.15804 6.40143 5.43934 6.68273C5.72064 6.96404 6.10218 7.12207 6.5 7.12207ZM6.5 4.62207C6.76522 4.62207 7.01957 4.72743 7.20711 4.91496C7.39464 5.1025 7.5 5.35685 7.5 5.62207C7.5 5.88729 7.39464 6.14164 7.20711 6.32918C7.01957 6.51671 6.76522 6.62207 6.5 6.62207C6.23478 6.62207 5.98043 6.51671 5.79289 6.32918C5.60536 6.14164 5.5 5.88729 5.5 5.62207C5.5 5.35685 5.60536 5.1025 5.79289 4.91496C5.98043 4.72743 6.23478 4.62207 6.5 4.62207Z" fill="black"/>
<path id="Vector_3" fill-rule="evenodd" clip-rule="evenodd" d="M3 5.68357C3 7.68457 5.1115 11.1221 6.5 11.1221C7.8885 11.1221 10 7.68457 10 5.68357C10 3.71757 8.434 2.12207 6.5 2.12207C4.566 2.12207 3 3.71757 3 5.68357ZM9.5 5.68357C9.5 7.44357 7.548 10.6221 6.5 10.6221C5.452 10.6221 3.5 7.44357 3.5 5.68357C3.5 3.99207 4.844 2.62207 6.5 2.62207C8.156 2.62207 9.5 3.99207 9.5 5.68357Z" fill="black"/>
</g>
</g>
</mask>
<g mask="url(#mask0_142_4232)">
<path id="Vector_4" d="M6.5 13.1221C10.0899 13.1221 13 10.2119 13 6.62207C13 3.03222 10.0899 0.12207 6.5 0.12207C2.91015 0.12207 0 3.03222 0 6.62207C0 10.2119 2.91015 13.1221 6.5 13.1221Z" fill="#71717A"/>
</g>
</g>
</g>
</g>
<defs>
<clipPath id="clip0_142_4232">
<rect width="13" height="13" fill="white" transform="translate(0 0.12207)"/>
</clipPath>
</defs>
</svg>
