<svg width="24" height="25" viewBox="0 0 24 25" fill="none" xmlns="http://www.w3.org/2000/svg">
<g id="Group 8803">
<g id="Group">
<path id="Vector" opacity="0.2" d="M23.1407 12.4831C23.144 13.7258 22.8095 14.946 22.173 16.0133C21.5365 17.0806 20.6218 17.9548 19.5268 18.5424C18.4319 19.1301 17.1978 19.409 15.9565 19.3495C14.7152 19.29 13.5135 18.8943 12.4798 18.2046C12.3376 18.1078 12.1696 18.0561 11.9977 18.0561C11.8258 18.0561 11.6578 18.1078 11.5156 18.2046C10.729 18.7323 9.8415 19.0913 8.90917 19.2589C7.97683 19.4264 7.01989 19.399 6.09869 19.1783C5.17749 18.9575 4.31203 18.5483 3.5569 17.9764C2.80176 17.4044 2.17335 16.6822 1.71128 15.8553C1.24921 15.0284 0.963527 14.1146 0.872241 13.1718C0.780955 12.2289 0.88605 11.2774 1.1809 10.3771C1.47574 9.47692 1.95394 8.64757 2.58533 7.9414C3.21672 7.23523 3.9876 6.66757 4.84935 6.27421C5.04284 6.1839 5.19565 6.02459 5.27784 5.82751C5.83256 4.5032 6.76627 3.37236 7.96167 2.57704C9.15707 1.78173 10.5608 1.35742 11.9966 1.35742C13.4324 1.35742 14.8362 1.78173 16.0316 2.57704C17.227 3.37236 18.1607 4.5032 18.7154 5.82751C18.7976 6.02459 18.9504 6.1839 19.1439 6.27421C20.3331 6.81986 21.3414 7.69442 22.0496 8.79461C22.7578 9.8948 23.1364 11.1747 23.1407 12.4831Z" fill="#262626"/>
<path id="Vector_2" d="M19.5092 5.49628C18.8892 4.01609 17.8457 2.75213 16.5096 1.8632C15.1736 0.974261 13.6046 0.5 11.9998 0.5C10.3951 0.5 8.82608 0.974261 7.49002 1.8632C6.15396 2.75213 5.1104 4.01609 4.49046 5.49628C3.15646 6.11432 2.02597 7.09934 1.23113 8.33617C0.436292 9.573 0.00996347 11.0105 0.00198392 12.4807C-0.00979967 16.6393 3.36138 20.1079 7.51563 20.2151C8.77233 20.2479 10.0179 19.9716 11.1428 19.4106V23.643C11.1428 23.8703 11.2331 24.0883 11.3938 24.249C11.5546 24.4097 11.7725 24.5 11.9998 24.5C12.2271 24.5 12.4451 24.4097 12.6058 24.249C12.7665 24.0883 12.8568 23.8703 12.8568 23.643V19.4106C13.9214 19.9415 15.0951 20.2169 16.2848 20.2151H16.484C20.6383 20.1079 24.0094 16.6414 23.9977 12.4829C23.9905 11.0122 23.5645 9.57407 22.7696 8.33675C21.9747 7.09943 20.8438 6.11416 19.5092 5.49628ZM16.4401 18.5011C15.2025 18.535 13.9851 18.1831 12.9564 17.4941C12.9229 17.4727 12.8897 17.4523 12.8568 17.4331V13.0314L17.5253 10.6982C17.626 10.6478 17.7158 10.5781 17.7896 10.4931C17.8634 10.408 17.9197 10.3092 17.9553 10.2024C17.9909 10.0955 18.0051 9.98274 17.9971 9.87041C17.9892 9.75808 17.9591 9.64842 17.9088 9.54769C17.8584 9.44697 17.7887 9.35715 17.7036 9.28337C17.6185 9.20958 17.5198 9.15327 17.4129 9.11766C17.3061 9.08205 17.1933 9.06783 17.081 9.07581C16.9686 9.0838 16.859 9.11383 16.7583 9.16419L12.8568 11.116V8.21722C12.8568 7.98993 12.7665 7.77195 12.6058 7.61124C12.4451 7.45052 12.2271 7.36023 11.9998 7.36023C11.7725 7.36023 11.5546 7.45052 11.3938 7.61124C11.2331 7.77195 11.1428 7.98993 11.1428 8.21722V13.6869L7.2414 11.7352C7.03797 11.6334 6.80248 11.6167 6.58672 11.6886C6.37095 11.7605 6.1926 11.9152 6.09089 12.1187C5.98918 12.3221 5.97244 12.5576 6.04436 12.7733C6.11628 12.9891 6.27097 13.1675 6.47439 13.2692L11.1428 15.6023V17.4298C11.1096 17.4491 11.0764 17.4695 11.0443 17.4909C10.0156 18.181 8.7978 18.534 7.55955 18.5011C6.20468 18.4672 4.9012 17.9756 3.86144 17.1063C2.82169 16.2369 2.10695 15.0412 1.83366 13.7137C1.56037 12.3862 1.74463 11.0054 2.35643 9.79602C2.96823 8.58668 3.97151 7.62013 5.20283 7.05386C5.59226 6.87543 5.90016 6.55682 6.06518 6.16152C6.55435 4.99244 7.37821 3.99406 8.43318 3.29188C9.48816 2.5897 10.7272 2.21507 11.9945 2.21507C13.2618 2.21507 14.5008 2.5897 15.5558 3.29188C16.6107 3.99406 17.4346 4.99244 17.9238 6.16152C18.0888 6.55682 18.3967 6.87543 18.7861 7.05386C20.0174 7.62013 21.0207 8.58668 21.6325 9.79602C22.2443 11.0054 22.4286 12.3862 22.1553 13.7137C21.882 15.0412 21.1672 16.2369 20.1275 17.1063C19.0877 17.9756 17.7843 18.4672 16.4294 18.5011H16.4401Z" fill="#262626"/>
</g>
</g>
</svg>
