<svg width="20" height="23" viewBox="0 0 20 23" fill="none" xmlns="http://www.w3.org/2000/svg">
<g id="Group">
<path id="Vector" opacity="0.2" d="M19 3.83333V8H1V3.83333C1 3.61232 1.0862 3.40036 1.23964 3.24408C1.39308 3.0878 1.60119 3 1.81818 3H18.1818C18.3988 3 18.6069 3.0878 18.7604 3.24408C18.9138 3.40036 19 3.61232 19 3.83333Z" fill="black"/>
<path id="Vector_2" d="M18.3333 2.58317H15.8333V1.74984C15.8333 1.52882 15.7455 1.31686 15.5893 1.16058C15.433 1.0043 15.221 0.916504 15 0.916504C14.779 0.916504 14.567 1.0043 14.4107 1.16058C14.2545 1.31686 14.1667 1.52882 14.1667 1.74984V2.58317H5.83333V1.74984C5.83333 1.52882 5.74554 1.31686 5.58926 1.16058C5.43297 1.0043 5.22101 0.916504 5 0.916504C4.77899 0.916504 4.56702 1.0043 4.41074 1.16058C4.25446 1.31686 4.16667 1.52882 4.16667 1.74984V2.58317H1.66667C1.22464 2.58317 0.800716 2.75877 0.488155 3.07133C0.175595 3.38389 0 3.80781 0 4.24984V20.9165C0 21.3585 0.175595 21.7825 0.488155 22.095C0.800716 22.4076 1.22464 22.5832 1.66667 22.5832H18.3333C18.7754 22.5832 19.1993 22.4076 19.5118 22.095C19.8244 21.7825 20 21.3585 20 20.9165V4.24984C20 3.80781 19.8244 3.38389 19.5118 3.07133C19.1993 2.75877 18.7754 2.58317 18.3333 2.58317ZM4.16667 4.24984V5.08317C4.16667 5.30418 4.25446 5.51615 4.41074 5.67243C4.56702 5.82871 4.77899 5.9165 5 5.9165C5.22101 5.9165 5.43297 5.82871 5.58926 5.67243C5.74554 5.51615 5.83333 5.30418 5.83333 5.08317V4.24984H14.1667V5.08317C14.1667 5.30418 14.2545 5.51615 14.4107 5.67243C14.567 5.82871 14.779 5.9165 15 5.9165C15.221 5.9165 15.433 5.82871 15.5893 5.67243C15.7455 5.51615 15.8333 5.30418 15.8333 5.08317V4.24984H18.3333V7.58317H1.66667V4.24984H4.16667ZM18.3333 20.9165H1.66667V9.24984H18.3333V20.9165ZM13.0896 13.1728L11.1781 15.0832L13.0896 16.9936C13.167 17.071 13.2284 17.1629 13.2703 17.2641C13.3122 17.3653 13.3338 17.4737 13.3338 17.5832C13.3338 17.6927 13.3122 17.8011 13.2703 17.9023C13.2284 18.0034 13.167 18.0953 13.0896 18.1728C13.0122 18.2502 12.9202 18.3116 12.8191 18.3535C12.7179 18.3954 12.6095 18.417 12.5 18.417C12.3905 18.417 12.2821 18.3954 12.1809 18.3535C12.0798 18.3116 11.9878 18.2502 11.9104 18.1728L10 16.2613L8.08958 18.1728C8.01216 18.2502 7.92024 18.3116 7.81908 18.3535C7.71792 18.3954 7.6095 18.417 7.5 18.417C7.3905 18.417 7.28208 18.3954 7.18092 18.3535C7.07976 18.3116 6.98784 18.2502 6.91042 18.1728C6.83299 18.0953 6.77157 18.0034 6.72967 17.9023C6.68777 17.8011 6.6662 17.6927 6.6662 17.5832C6.6662 17.4737 6.68777 17.3653 6.72967 17.2641C6.77157 17.1629 6.83299 17.071 6.91042 16.9936L8.82187 15.0832L6.91042 13.1728C6.75405 13.0164 6.6662 12.8043 6.6662 12.5832C6.6662 12.362 6.75405 12.15 6.91042 11.9936C7.06678 11.8372 7.27886 11.7494 7.5 11.7494C7.72114 11.7494 7.93322 11.8372 8.08958 11.9936L10 13.905L11.9104 11.9936C11.9878 11.9162 12.0798 11.8547 12.1809 11.8128C12.2821 11.7709 12.3905 11.7494 12.5 11.7494C12.6095 11.7494 12.7179 11.7709 12.8191 11.8128C12.9202 11.8547 13.0122 11.9162 13.0896 11.9936C13.167 12.071 13.2284 12.1629 13.2703 12.2641C13.3122 12.3653 13.3338 12.4737 13.3338 12.5832C13.3338 12.6927 13.3122 12.8011 13.2703 12.9023C13.2284 13.0034 13.167 13.0953 13.0896 13.1728Z" fill="black"/>
</g>
</svg>
