<svg width="13" height="3" viewBox="0 0 13 3" fill="none" xmlns="http://www.w3.org/2000/svg">
<path id="Vector" d="M10.25 1.5C10.25 1.16848 10.3817 0.850537 10.6161 0.616117C10.8505 0.381696 11.1685 0.25 11.5 0.25C11.8315 0.25 12.1495 0.381696 12.3839 0.616117C12.6183 0.850537 12.75 1.16848 12.75 1.5C12.75 1.83152 12.6183 2.14946 12.3839 2.38388C12.1495 2.6183 11.8315 2.75 11.5 2.75C11.1685 2.75 10.8505 2.6183 10.6161 2.38388C10.3817 2.14946 10.25 1.83152 10.25 1.5ZM5.25 1.5C5.25 1.16848 5.3817 0.850537 5.61612 0.616117C5.85054 0.381696 6.16848 0.25 6.5 0.25C6.83152 0.25 7.14946 0.381696 7.38388 0.616117C7.6183 0.850537 7.75 1.16848 7.75 1.5C7.75 1.83152 7.6183 2.14946 7.38388 2.38388C7.14946 2.6183 6.83152 2.75 6.5 2.75C6.16848 2.75 5.85054 2.6183 5.61612 2.38388C5.3817 2.14946 5.25 1.83152 5.25 1.5ZM0.25 1.5C0.25 1.16848 0.381696 0.850537 0.616117 0.616117C0.850537 0.381696 1.16848 0.25 1.5 0.25C1.83152 0.25 2.14946 0.381696 2.38388 0.616117C2.6183 0.850537 2.75 1.16848 2.75 1.5C2.75 1.83152 2.6183 2.14946 2.38388 2.38388C2.14946 2.6183 1.83152 2.75 1.5 2.75C1.16848 2.75 0.850537 2.6183 0.616117 2.38388C0.381696 2.14946 0.25 1.83152 0.25 1.5Z" fill="black"/>
</svg>
