<svg width="21" height="21" viewBox="0 0 21 21" fill="none" xmlns="http://www.w3.org/2000/svg">
<path id="Vector" d="M2.72222 20.5C2.11111 20.5 1.58778 20.2822 1.15222 19.8467C0.716668 19.4111 0.499261 18.8881 0.500002 18.2778V2.72222C0.500002 2.11111 0.71778 1.58778 1.15334 1.15222C1.58889 0.716668 2.11185 0.499261 2.72222 0.500002H18.2778C18.8889 0.500002 19.4122 0.71778 19.8478 1.15334C20.2833 1.58889 20.5007 2.11185 20.5 2.72222V18.2778C20.5 18.8889 20.2822 19.4122 19.8467 19.8478C19.4111 20.2833 18.8881 20.5007 18.2778 20.5H2.72222ZM3.83333 16.0556H17.1667L13 10.5L9.66667 14.9444L7.16667 11.6111L3.83333 16.0556Z" fill="black"/>
</svg>
