<svg width="17" height="21" viewBox="0 0 17 21" fill="none" xmlns="http://www.w3.org/2000/svg">
<path id="Vector" d="M7.5 17.5H9.5V13.325L11.1 14.925L12.5 13.5L8.5 9.5L4.5 13.5L5.925 14.9L7.5 13.325V17.5ZM2.5 20.5C1.95 20.5 1.479 20.304 1.087 19.912C0.695002 19.52 0.499335 19.0493 0.500002 18.5V2.5C0.500002 1.95 0.696001 1.479 1.088 1.087C1.48 0.695002 1.95067 0.499335 2.5 0.500002H10.5L16.5 6.5V18.5C16.5 19.05 16.304 19.521 15.912 19.913C15.52 20.305 15.0493 20.5007 14.5 20.5H2.5ZM9.5 7.5H14.5L9.5 2.5V7.5Z" fill="black"/>
</svg>
