<svg width="30" height="30" viewBox="0 0 30 30" fill="none" xmlns="http://www.w3.org/2000/svg">
<path d="M3.75 15C3.75 8.7868 8.7868 3.75 15 3.75C21.2132 3.75 26.25 8.7868 26.25 15C26.25 21.2132 21.2132 26.25 15 26.25C8.7868 26.25 3.75 21.2132 3.75 15Z" fill="#7E869E" fill-opacity="0.25"/>
<circle cx="15" cy="12.5" r="5" fill="#222222"/>
<path fill-rule="evenodd" clip-rule="evenodd" d="M22.8008 22.8487C22.8583 22.9454 22.8406 23.0686 22.7591 23.1463C20.7406 25.0694 18.0083 26.25 15.0002 26.25C11.9922 26.25 9.25986 25.0694 7.24135 23.1464C7.15987 23.0687 7.14214 22.9455 7.19966 22.8488C8.64628 20.4161 11.5963 18.75 15.0003 18.75C18.4042 18.75 21.3542 20.416 22.8008 22.8487Z" fill="#222222"/>
</svg>
