<svg width="32" height="25" viewBox="0 0 32 25" fill="none" xmlns="http://www.w3.org/2000/svg">
<g id="Group">
<path id="Vector" opacity="0.2" d="M23.3041 19.2831H28.5215V22.4135C28.5215 22.6903 28.4116 22.9557 28.2159 23.1514C28.0202 23.3471 27.7548 23.457 27.478 23.457H24.3476C24.0708 23.457 23.8054 23.3471 23.6097 23.1514C23.4141 22.9557 23.3041 22.6903 23.3041 22.4135V19.2831ZM3.47803 22.4135C3.47803 22.6903 3.58797 22.9557 3.78366 23.1514C3.97935 23.3471 4.24476 23.457 4.52151 23.457H7.65194C7.92869 23.457 8.1941 23.3471 8.38979 23.1514C8.58548 22.9557 8.69542 22.6903 8.69542 22.4135V19.2831H3.47803V22.4135ZM24.6228 2.16351C24.5408 1.97909 24.4071 1.82241 24.2379 1.71244C24.0686 1.60248 23.8712 1.54395 23.6693 1.54395H8.3302C8.12838 1.54395 7.93089 1.60248 7.76166 1.71244C7.59242 1.82241 7.45871 1.97909 7.37672 2.16351L3.47803 10.9352H28.5215L24.6228 2.16351Z" fill="#222222"/>
<path id="Vector_2" d="M30.6085 9.8913H29.1998L25.5764 1.73913C25.4124 1.3703 25.145 1.05693 24.8065 0.836997C24.468 0.617065 24.073 0.500005 23.6694 0.5H8.33027C7.92662 0.500005 7.53164 0.617065 7.19318 0.836997C6.85471 1.05693 6.58729 1.3703 6.42331 1.73913L2.79983 9.8913H1.39113C1.11439 9.8913 0.848974 10.0012 0.653284 10.1969C0.457594 10.3926 0.347656 10.658 0.347656 10.9348C0.347656 11.2115 0.457594 11.4769 0.653284 11.6726C0.848974 11.8683 1.11439 11.9783 1.39113 11.9783H2.43461V22.413C2.43461 22.9665 2.65449 23.4974 3.04587 23.8887C3.43725 24.2801 3.96807 24.5 4.52157 24.5H7.652C8.2055 24.5 8.73633 24.2801 9.12771 23.8887C9.51909 23.4974 9.73896 22.9665 9.73896 22.413V20.3261H22.2607V22.413C22.2607 22.9665 22.4806 23.4974 22.872 23.8887C23.2633 24.2801 23.7942 24.5 24.3477 24.5H27.4781C28.0316 24.5 28.5624 24.2801 28.9538 23.8887C29.3452 23.4974 29.5651 22.9665 29.5651 22.413V11.9783H30.6085C30.8853 11.9783 31.1507 11.8683 31.3464 11.6726C31.5421 11.4769 31.652 11.2115 31.652 10.9348C31.652 10.658 31.5421 10.3926 31.3464 10.1969C31.1507 10.0012 30.8853 9.8913 30.6085 9.8913ZM8.33027 2.58696H23.6694L26.9159 9.8913H5.08374L8.33027 2.58696ZM7.652 22.413H4.52157V20.3261H7.652V22.413ZM24.3477 22.413V20.3261H27.4781V22.413H24.3477ZM27.4781 18.2391H4.52157V11.9783H27.4781V18.2391ZM6.60853 15.1087C6.60853 14.8319 6.71846 14.5665 6.91415 14.3708C7.10984 14.1752 7.37526 14.0652 7.652 14.0652H9.73896C10.0157 14.0652 10.2811 14.1752 10.4768 14.3708C10.6725 14.5665 10.7824 14.8319 10.7824 15.1087C10.7824 15.3854 10.6725 15.6509 10.4768 15.8465C10.2811 16.0422 10.0157 16.1522 9.73896 16.1522H7.652C7.37526 16.1522 7.10984 16.0422 6.91415 15.8465C6.71846 15.6509 6.60853 15.3854 6.60853 15.1087ZM21.2172 15.1087C21.2172 14.8319 21.3272 14.5665 21.5229 14.3708C21.7185 14.1752 21.984 14.0652 22.2607 14.0652H24.3477C24.6244 14.0652 24.8898 14.1752 25.0855 14.3708C25.2812 14.5665 25.3911 14.8319 25.3911 15.1087C25.3911 15.3854 25.2812 15.6509 25.0855 15.8465C24.8898 16.0422 24.6244 16.1522 24.3477 16.1522H22.2607C21.984 16.1522 21.7185 16.0422 21.5229 15.8465C21.3272 15.6509 21.2172 15.3854 21.2172 15.1087Z" fill="#262626"/>
</g>
</svg>
